<svg width="62" height="62" viewBox="0 0 62 62" fill="none" xmlns="http://www.w3.org/2000/svg">
<rect width="61.2" height="61.2" rx="7.6" fill="#F1641E"/>
<path opacity="0.3" d="M46.125 37.9601C48.655 35.9284 48.3675 32.9959 48.3292 30.1017C48.1436 26.9839 46.876 24.0285 44.745 21.7451C42.8777 19.5227 40.5408 17.7422 37.9025 16.5317C35.3798 15.6699 32.7291 15.2421 30.0633 15.2667C25.155 14.9036 20.2881 16.3869 16.4167 19.4259C13.35 21.9176 11.4333 26.2876 14.04 29.8526C15.021 30.9426 16.29 31.7333 17.7008 32.1334C19.05 32.6219 20.5024 32.7539 21.9175 32.5167C21.6645 33.3201 21.602 34.1714 21.7351 35.0031C21.8682 35.8348 22.1931 36.6241 22.6842 37.3084C23.2178 37.9304 23.8837 38.4253 24.6331 38.7569C25.3826 39.0885 26.1966 39.2484 27.0158 39.2251C27.4615 39.2184 27.9025 39.1341 28.3192 38.9759C28.6751 38.7834 29.0205 38.5723 29.3542 38.3434C31.2549 37.4926 33.381 37.284 35.4108 37.7492C37.8391 38.3008 40.2963 38.7167 42.7708 38.9951C43.3169 39.0815 43.8731 39.0815 44.4192 38.9951C45.0513 38.7677 45.6313 38.4157 46.125 37.9601Z" fill="white"/>
<path d="M43.7101 38.9952C43.6045 39.8906 43.3245 40.7566 42.8859 41.5443C42.2917 42.6368 41.1226 43.001 40.2409 43.7868C39.0717 44.8793 39.3209 46.7577 39.3976 48.176C39.4186 48.5047 39.3594 48.8336 39.2251 49.1343C39.0261 49.3993 38.7385 49.5838 38.4147 49.6541C38.091 49.7245 37.7527 49.6761 37.4617 49.5177C36.8952 49.1688 36.4424 48.6627 36.1584 48.061C35.6601 47.1602 35.2576 46.1443 34.7017 45.3585C33.3814 43.7686 31.751 42.4643 29.9101 41.5252C29.037 40.8885 28.4026 39.9774 28.1084 38.9377H28.3192C28.6751 38.7452 29.0206 38.5341 29.3542 38.3052C31.2549 37.4543 33.3811 37.2457 35.4109 37.711C37.8392 38.2626 40.2963 38.6785 42.7709 38.9568C43.0829 38.9888 43.3965 39.0016 43.7101 38.9952Z" fill="white"/>
<path d="M21.419 27.8976C23.4302 27.8976 25.0607 26.2672 25.0607 24.2559C25.0607 22.2447 23.4302 20.6143 21.419 20.6143C19.4078 20.6143 17.7773 22.2447 17.7773 24.2559C17.7773 26.2672 19.4078 27.8976 21.419 27.8976Z" fill="white"/>
<path d="M30.6002 33.341C32.6114 33.341 34.2418 31.7105 34.2418 29.6993C34.2418 27.688 32.6114 26.0576 30.6002 26.0576C28.5889 26.0576 26.9585 27.688 26.9585 29.6993C26.9585 31.7105 28.5889 33.341 30.6002 33.341Z" fill="white"/>
<path d="M41.5059 35.1618C43.5172 35.1618 45.1476 33.5313 45.1476 31.5201C45.1476 29.5088 43.5172 27.8784 41.5059 27.8784C39.4947 27.8784 37.8643 29.5088 37.8643 31.5201C37.8643 33.5313 39.4947 35.1618 41.5059 35.1618Z" fill="white"/>
<path d="M21.419 25.1953C21.1372 25.1951 20.8616 25.112 20.6265 24.9565C20.3915 24.8009 20.2073 24.5796 20.097 24.3202C19.9867 24.0608 19.9551 23.7747 20.0062 23.4975C20.0572 23.2203 20.1886 22.9642 20.384 22.7611L25.5207 17.3753V12.9478C25.5207 12.5665 25.6722 12.2009 25.9417 11.9313C26.2113 11.6617 26.577 11.5103 26.9582 11.5103C27.3395 11.5103 27.7051 11.6617 27.9747 11.9313C28.2443 12.2009 28.3957 12.5665 28.3957 12.9478V17.9503C28.4006 18.3194 28.2634 18.6762 28.0124 18.9469L22.454 24.8503C22.1668 25.095 21.7957 25.2187 21.419 25.1953Z" fill="white"/>
<path d="M30.6002 31.0219C30.3331 31.0133 30.0737 30.9304 29.8511 30.7826C29.6285 30.6347 29.4515 30.4277 29.34 30.1848C29.2286 29.942 29.187 29.6728 29.22 29.4077C29.253 29.1425 29.3593 28.8917 29.5269 28.6836L32.8044 24.8503V12.9478C32.8044 12.5665 32.9558 12.2009 33.2254 11.9313C33.495 11.6617 33.8606 11.5103 34.2419 11.5103C34.6231 11.5103 34.9887 11.6617 35.2583 11.9313C35.5279 12.2009 35.6794 12.5665 35.6794 12.9478V25.4636C35.6747 25.816 35.5457 26.1554 35.3152 26.4219L31.6735 30.6003C31.5349 30.7428 31.3674 30.8541 31.1823 30.9268C30.9972 30.9995 30.7988 31.0319 30.6002 31.0219Z" fill="white"/>
<path d="M41.5059 32.9578C41.1262 32.9528 40.7634 32.7997 40.4949 32.5312C40.2264 32.2627 40.0733 31.9 40.0684 31.5203V12.9478C40.0684 12.5665 40.2198 12.2009 40.4894 11.9313C40.759 11.6617 41.1246 11.5103 41.5059 11.5103C41.8871 11.5103 42.2527 11.6617 42.5223 11.9313C42.7919 12.2009 42.9434 12.5665 42.9434 12.9478V31.5203C42.9434 31.9015 42.7919 32.2671 42.5223 32.5367C42.2527 32.8063 41.8871 32.9578 41.5059 32.9578Z" fill="white"/>
</svg>
