<svg width="61" height="61" viewBox="0 0 61 61" fill="none" xmlns="http://www.w3.org/2000/svg">
<rect width="60.8" height="60.8" rx="7.6" fill="#F1641E"/>
<path opacity="0.3" d="M30.4951 49.4001C27.9902 49.4052 25.514 48.8672 23.2371 47.8231C22.8974 47.6583 22.6345 47.3686 22.5035 47.0145C22.3725 46.6604 22.3834 46.2693 22.5341 45.9231C22.6952 45.58 22.9847 45.314 23.3401 45.1825C23.6956 45.051 24.0885 45.0645 24.4341 45.2201C26.2864 46.063 28.2941 46.5102 30.3291 46.5331C32.364 46.556 34.3813 46.1541 36.2521 45.3531C36.5982 45.2222 36.9813 45.2291 37.3224 45.3724C37.6636 45.5157 37.9367 45.7846 38.0854 46.1234C38.2341 46.4622 38.247 46.8452 38.1215 47.1933C37.9961 47.5414 37.7418 47.8281 37.4111 47.9941C35.2271 48.9338 32.8726 49.4125 30.4951 49.4001Z" fill="white"/>
<path opacity="0.3" d="M46.3223 31.8248C45.9675 31.8221 45.6262 31.6889 45.3634 31.4506C45.1005 31.2123 44.9346 30.8856 44.8973 30.5328C44.6862 28.5537 44.0715 26.639 43.0911 24.9069C42.1107 23.1749 40.7854 21.6623 39.1973 20.4628C38.9293 20.2212 38.7615 19.888 38.7269 19.5289C38.6923 19.1698 38.7933 18.8107 39.0102 18.5224C39.227 18.234 39.544 18.0373 39.8986 17.9709C40.2532 17.9046 40.6198 17.9734 40.9263 18.1638C42.8347 19.6007 44.4268 21.4151 45.6036 23.4941C46.7804 25.573 47.5165 27.872 47.7663 30.2478C47.7873 30.4351 47.771 30.6247 47.7183 30.8057C47.6656 30.9867 47.5774 31.1554 47.459 31.302C47.3406 31.4487 47.1943 31.5704 47.0285 31.6602C46.8628 31.7499 46.6808 31.8058 46.4933 31.8248H46.3223Z" fill="white"/>
<path opacity="0.3" d="M14.6681 31.8251H14.5161C14.1439 31.7732 13.8073 31.5763 13.5796 31.2774C13.3519 30.9785 13.2514 30.6018 13.3001 30.2291C13.5514 27.8115 14.3069 25.4734 15.5178 23.3658C16.7286 21.2582 18.368 19.4279 20.3301 17.9931C20.4798 17.8553 20.6569 17.7506 20.8499 17.686C21.0429 17.6214 21.2473 17.5983 21.4498 17.6183C21.6523 17.6382 21.8483 17.7007 22.025 17.8017C22.2016 17.9027 22.355 18.0399 22.4749 18.2043C22.5948 18.3687 22.6786 18.5566 22.7209 18.7556C22.7631 18.9547 22.7628 19.1604 22.7199 19.3594C22.6771 19.5583 22.5927 19.7459 22.4723 19.91C22.3518 20.074 22.1981 20.2107 22.0211 20.3111C20.3715 21.504 18.9912 23.0306 17.9699 24.7916C16.9486 26.5527 16.3092 28.5089 16.0931 30.5331C16.0558 30.8859 15.8899 31.2127 15.627 31.4509C15.3642 31.6892 15.0229 31.8224 14.6681 31.8251Z" fill="white"/>
<path d="M30.3625 22.4579C33.4161 22.4579 35.8915 19.9825 35.8915 16.9289C35.8915 13.8753 33.4161 11.3999 30.3625 11.3999C27.3089 11.3999 24.8335 13.8753 24.8335 16.9289C24.8335 19.9825 27.3089 22.4579 30.3625 22.4579Z" fill="white"/>
<path d="M17.1003 45.163C20.1539 45.163 22.6293 42.6876 22.6293 39.634C22.6293 36.5804 20.1539 34.105 17.1003 34.105C14.0467 34.105 11.5713 36.5804 11.5713 39.634C11.5713 42.6876 14.0467 45.163 17.1003 45.163Z" fill="white"/>
<path d="M43.7004 45.163C46.754 45.163 49.2294 42.6876 49.2294 39.634C49.2294 36.5804 46.754 34.105 43.7004 34.105C40.6468 34.105 38.1714 36.5804 38.1714 39.634C38.1714 42.6876 40.6468 45.163 43.7004 45.163Z" fill="white"/>
</svg>
