<svg width="62" height="62" viewBox="0 0 62 62" fill="none" xmlns="http://www.w3.org/2000/svg">
<rect width="61.2" height="61.2" rx="7.6" fill="#F1641E"/>
<path opacity="0.3" d="M11.5866 30.792L13.1007 27.3995C13.3131 26.96 13.6853 26.6181 14.1412 26.4435C14.5971 26.269 15.1024 26.275 15.5541 26.4603L17.2599 27.2078C19.1127 28.0793 21.1349 28.5311 23.1824 28.5311C25.2299 28.5311 27.2521 28.0793 29.1049 27.2078C31.9037 25.9104 34.9516 25.2383 38.0366 25.2383C41.1215 25.2383 44.1694 25.9104 46.9682 27.2078L48.6549 27.9553C49.0979 28.1644 49.444 28.5351 49.6222 28.9913C49.8004 29.4476 49.7972 29.9547 49.6132 30.4087L48.0991 33.8012C47.8866 34.2407 47.5145 34.5826 47.0586 34.7572C46.6027 34.9317 46.0974 34.9257 45.6457 34.7403L44.0166 33.9928C42.1638 33.1214 40.1415 32.6696 38.0941 32.6696C36.0466 32.6696 34.0243 33.1214 32.1716 33.9928C29.3727 35.2903 26.3248 35.9624 23.2399 35.9624C20.155 35.9624 17.1071 35.2903 14.3082 33.9928L12.6216 33.2453C12.1648 33.0502 11.8016 32.6854 11.6085 32.2277C11.4154 31.7701 11.4075 31.2553 11.5866 30.792ZM12.5449 46.4512L14.2316 47.1987C17.0318 48.4911 20.0791 49.1604 23.1632 49.1604C26.2473 49.1604 29.2947 48.4911 32.0949 47.1987C33.9477 46.3272 35.9699 45.8754 38.0174 45.8754C40.0649 45.8754 42.0871 46.3272 43.9399 47.1987L45.6457 47.9653C46.0974 48.1507 46.6027 48.1567 47.0586 47.9822C47.5145 47.8076 47.8866 47.4657 48.0991 47.0262L49.6132 43.6337C49.7972 43.1797 49.8004 42.6726 49.6222 42.2163C49.444 41.7601 49.0979 41.3894 48.6549 41.1803L46.9682 40.4137C44.1694 39.1162 41.1215 38.4441 38.0366 38.4441C34.9516 38.4441 31.9037 39.1162 29.1049 40.4137C27.2521 41.2851 25.2299 41.737 23.1824 41.737C21.1349 41.737 19.1127 41.2851 17.2599 40.4137L15.5541 39.6662C15.1024 39.4808 14.5971 39.4748 14.1412 39.6494C13.6853 39.8239 13.3131 40.1658 13.1007 40.6053L11.5866 44.017C11.4082 44.4687 11.408 44.9712 11.5859 45.423C11.7638 45.8748 12.1065 46.2423 12.5449 46.4512Z" fill="white"/>
<path d="M11.5868 17.5668L13.101 14.1743C13.3134 13.7348 13.6855 13.3928 14.1414 13.2183C14.5973 13.0438 15.1027 13.0498 15.5543 13.2351L17.2601 14.0018C19.1129 14.8732 21.1351 15.3251 23.1826 15.3251C25.2301 15.3251 27.2524 14.8732 29.1051 14.0018C31.9053 12.7094 34.9527 12.04 38.0368 12.04C41.1209 12.04 44.1682 12.7094 46.9685 14.0018L48.6551 14.7493C49.0935 14.9582 49.4363 15.3256 49.6141 15.7775C49.792 16.2293 49.7918 16.7318 49.6135 17.1835L48.0993 20.576C47.8869 21.0155 47.5147 21.3574 47.0588 21.5319C46.6029 21.7065 46.0976 21.7005 45.646 21.5151L44.0168 20.7868C42.164 19.9153 40.1418 19.4635 38.0943 19.4635C36.0468 19.4635 34.0246 19.9153 32.1718 20.7868C29.373 22.0843 26.3251 22.7564 23.2401 22.7564C20.1552 22.7564 17.1073 22.0843 14.3085 20.7868L12.6218 20.0201C12.165 19.825 11.8018 19.4602 11.6087 19.0025C11.4157 18.5449 11.4078 18.0301 11.5868 17.5668Z" fill="white"/>
</svg>
