<svg width="62" height="62" viewBox="0 0 62 62" fill="none" xmlns="http://www.w3.org/2000/svg">
<rect width="61.2" height="61.2" rx="7.6" fill="#F1641E"/>
<g clip-path="url(#clip0_332_730)">
<path d="M45.3723 52.8159C35.5555 53.8633 25.6551 53.8633 15.8382 52.8159C13.9319 52.6146 12.1521 51.766 10.7957 50.4114C9.43928 49.0569 8.58812 47.2784 8.38413 45.3723C7.3368 35.5555 7.3368 25.6551 8.38413 15.8382C8.58544 13.9319 9.43411 12.1521 10.7886 10.7957C12.1432 9.43928 13.9217 8.58812 15.8278 8.38413C25.6446 7.3368 35.545 7.3368 45.3619 8.38413C47.2682 8.58544 49.0479 9.43411 50.4044 10.7886C51.7608 12.1432 52.612 13.9217 52.8159 15.8278C53.8633 25.6446 53.8633 35.545 52.8159 45.3619C52.6146 47.2682 51.766 49.0479 50.4114 50.4044C49.0569 51.7608 47.2784 52.612 45.3723 52.8159Z" fill="white"/>
<path d="M24.1705 20.1456C24.1705 20.9209 23.9406 21.6789 23.5098 22.3236C23.079 22.9684 22.4667 23.4709 21.7503 23.7676C21.034 24.0643 20.2457 24.1419 19.4852 23.9907C18.7247 23.8394 18.0262 23.466 17.4779 22.9177C16.9296 22.3694 16.5562 21.6709 16.4049 20.9104C16.2537 20.1499 16.3313 19.3616 16.628 18.6453C16.9247 17.9289 17.4272 17.3166 18.072 16.8858C18.7167 16.455 19.4747 16.2251 20.25 16.2251C21.2898 16.2251 22.287 16.6381 23.0222 17.3734C23.7575 18.1086 24.1705 19.1058 24.1705 20.1456Z" fill="#F1641E"/>
<path d="M23.2821 26.6798V44.0004C23.2828 44.1281 23.2582 44.2548 23.2098 44.373C23.1614 44.4913 23.0901 44.5988 23 44.6894C22.9098 44.78 22.8027 44.8519 22.6847 44.9009C22.5667 44.95 22.4402 44.9753 22.3124 44.9752H18.1803C18.0525 44.9756 17.9259 44.9507 17.8078 44.9019C17.6897 44.8532 17.5824 44.7816 17.492 44.6912C17.4017 44.6009 17.3301 44.4936 17.2813 44.3755C17.2326 44.2573 17.2077 44.1308 17.208 44.003V26.6798C17.208 26.4219 17.3104 26.1746 17.4928 25.9923C17.6751 25.81 17.9224 25.7075 18.1803 25.7075H22.3124C22.5699 25.7082 22.8165 25.811 22.9983 25.9932C23.18 26.1755 23.2821 26.4224 23.2821 26.6798Z" fill="#F1641E"/>
<path d="M44.8812 35.6967V44.0813C44.8815 44.1988 44.8586 44.3152 44.8138 44.4238C44.769 44.5324 44.7032 44.631 44.6201 44.7141C44.5371 44.7972 44.4384 44.863 44.3298 44.9078C44.2212 44.9526 44.1048 44.9755 43.9873 44.9752H39.5441C39.4266 44.9755 39.3103 44.9526 39.2017 44.9078C39.093 44.863 38.9944 44.7972 38.9113 44.7141C38.8282 44.631 38.7624 44.5324 38.7176 44.4238C38.6728 44.3152 38.6499 44.1988 38.6503 44.0813V35.9555C38.6503 34.7428 39.0057 30.6446 35.4799 30.6446C32.7487 30.6446 32.192 33.449 32.0822 34.7088V44.0813C32.0822 44.3161 31.9898 44.5415 31.825 44.7088C31.6602 44.876 31.4362 44.9717 31.2014 44.9752H26.9098C26.7925 44.9752 26.6764 44.952 26.5681 44.9071C26.4598 44.8621 26.3615 44.7962 26.2787 44.7132C26.1959 44.6301 26.1303 44.5316 26.0856 44.4232C26.041 44.3147 26.0182 44.1985 26.0186 44.0813V26.6039C26.0182 26.4866 26.041 26.3705 26.0856 26.262C26.1303 26.1536 26.1959 26.055 26.2787 25.972C26.3615 25.889 26.4598 25.8231 26.5681 25.7781C26.6764 25.7332 26.7925 25.71 26.9098 25.71H31.2014C31.4385 25.71 31.6658 25.8042 31.8335 25.9718C32.0011 26.1395 32.0953 26.3668 32.0953 26.6039V28.1146C33.1094 26.5934 34.6122 25.4199 37.8191 25.4199C44.923 25.4199 44.8812 32.0533 44.8812 35.6967Z" fill="#F1641E"/>
</g>
<defs>
<clipPath id="clip0_332_730">
<rect width="46" height="46" fill="white" transform="translate(7.6001 7.6001)"/>
</clipPath>
</defs>
</svg>
