<svg width="62" height="62" viewBox="0 0 62 62" fill="none" xmlns="http://www.w3.org/2000/svg">
<rect width="61.2" height="61.2" rx="7.6" fill="#F1641E"/>
<path opacity="0.3" d="M28.6836 20.0583C28.6798 21.7571 28.1733 23.4168 27.2279 24.8282C26.2825 26.2396 24.9405 27.3397 23.371 27.9897C21.8015 28.6398 20.0747 28.8108 18.4082 28.4813C16.7416 28.1517 15.2099 27.3362 14.0061 26.1377C12.8022 24.9391 11.9799 23.411 11.643 21.746C11.306 20.0809 11.4693 18.3534 12.1125 16.781C12.7556 15.2087 13.8497 13.8618 15.2569 12.9102C16.6641 11.9585 18.3215 11.4447 20.0203 11.4333C21.1568 11.4257 22.2837 11.6433 23.3357 12.0736C24.3877 12.5039 25.344 13.1383 26.1495 13.9402C26.955 14.7421 27.5937 15.6957 28.0286 16.7458C28.4635 17.7958 28.6862 18.9217 28.6836 20.0583ZM41.0269 11.4333C39.3195 11.4257 37.6481 11.9251 36.2247 12.8682C34.8013 13.8113 33.6899 15.1557 33.0312 16.731C32.3725 18.3063 32.1962 20.0417 32.5247 21.7173C32.8531 23.3929 33.6715 24.9333 34.8762 26.1434C36.0809 27.3535 37.6177 28.1787 39.2918 28.5147C40.9659 28.8506 42.7021 28.682 44.2803 28.0304C45.8586 27.3787 47.2079 26.2732 48.1573 24.8541C49.1068 23.4349 49.6136 21.7658 49.6136 20.0583C49.6186 18.9275 49.4003 17.8068 48.971 16.7605C48.5418 15.7143 47.9101 14.7632 47.1122 13.9618C46.3144 13.1604 45.3661 12.5245 44.3218 12.0906C43.2775 11.6567 42.1578 11.4333 41.0269 11.4333ZM19.9436 32.5166C18.2428 32.5393 16.5867 33.0644 15.1835 34.0258C13.7804 34.9872 12.6928 36.342 12.0576 37.9199C11.4224 39.4978 11.2679 41.2282 11.6136 42.8937C11.9593 44.5591 12.7896 46.0852 14.0003 47.2799C15.211 48.4747 16.7479 49.2848 18.4178 49.6084C20.0877 49.9319 21.8159 49.7545 23.3853 49.0985C24.9546 48.4425 26.2949 47.337 27.2376 45.9213C28.1804 44.5055 28.6834 42.8426 28.6836 41.1416C28.6862 40.005 28.4635 38.8792 28.0286 37.8291C27.5937 36.779 26.955 35.8255 26.1495 35.0236C25.344 34.2216 24.3877 33.5872 23.3357 33.1569C22.2837 32.7267 21.1568 32.509 20.0203 32.5166H19.9436ZM41.0269 32.5166C39.3195 32.509 37.6481 33.0084 36.2247 33.9515C34.8013 34.8946 33.6899 36.239 33.0312 37.8143C32.3725 39.3897 32.1962 41.1251 32.5247 42.8007C32.8531 44.4763 33.6715 46.0167 34.8762 47.2267C36.0809 48.4368 37.6177 49.2621 39.2918 49.598C40.9659 49.9339 42.7021 49.7654 44.2803 49.1137C45.8586 48.462 47.2079 47.3566 48.1573 45.9374C49.1068 44.5182 49.6136 42.8491 49.6136 41.1416C49.6186 40.0108 49.4003 38.8901 48.971 37.8439C48.5418 36.7977 47.9101 35.8466 47.1122 35.0451C46.3144 34.2437 45.3661 33.6078 44.3218 33.1739C43.2775 32.74 42.1578 32.5166 41.0269 32.5166Z" fill="white"/>
<path d="M41.0269 38.2667H40.8736L39.5511 36.9442C38.4004 35.814 37.6471 34.3412 37.4044 32.7467C37.2128 31.3091 37.2128 29.8525 37.4044 28.415C37.6471 26.8205 38.4004 25.3477 39.5511 24.2175L40.8736 22.9333H41.0269C41.5999 22.9563 42.1666 22.8074 42.6543 22.5057C43.142 22.2041 43.5283 21.7635 43.7636 21.2406C43.999 20.7177 44.0726 20.1363 43.975 19.5713C43.8774 19.0062 43.613 18.4833 43.2159 18.0696C42.8188 17.656 42.3071 17.3705 41.7465 17.2499C41.1859 17.1293 40.602 17.1792 40.0699 17.393C39.5379 17.6068 39.0819 17.9748 38.7606 18.4498C38.4393 18.9247 38.2674 19.4849 38.2669 20.0583V20.2117L36.9636 21.5342C35.8168 22.7079 34.3141 23.4694 32.6894 23.7C31.2583 23.8918 29.808 23.8918 28.3769 23.7C26.7851 23.4535 25.3176 22.6928 24.1986 21.5342L22.9336 20.2117C22.9336 20.2117 22.9336 20.2117 22.9336 20.0583C22.9335 19.4914 22.7659 18.9371 22.4516 18.4651C22.1374 17.9932 21.6906 17.6247 21.1675 17.406C20.6444 17.1874 20.0683 17.1282 19.5117 17.2361C18.955 17.344 18.4427 17.614 18.0392 18.0122C17.6356 18.4105 17.3588 18.9192 17.2436 19.4743C17.1284 20.0295 17.1799 20.6063 17.3916 21.1323C17.6033 21.6582 17.9659 22.1098 18.4336 22.4303C18.9013 22.7508 19.4533 22.9258 20.0203 22.9333H20.1736L21.4961 24.2558C22.6527 25.3841 23.4126 26.8569 23.6619 28.4533C23.8536 29.8909 23.8536 31.3475 23.6619 32.785C23.4126 34.3815 22.6527 35.8542 21.4961 36.9825L20.1736 38.2667H20.0203C19.4533 38.2742 18.9013 38.4493 18.4336 38.7697C17.9659 39.0902 17.6033 39.5418 17.3916 40.0678C17.1799 40.5937 17.1284 41.1705 17.2436 41.7257C17.3588 42.2808 17.6356 42.7895 18.0392 43.1878C18.4427 43.586 18.955 43.8561 19.5117 43.9639C20.0683 44.0718 20.6444 44.0126 21.1675 43.794C21.6906 43.5753 22.1374 43.2068 22.4516 42.7349C22.7659 42.263 22.9335 41.7086 22.9336 41.1417C22.9336 41.1417 22.9336 41.0458 22.9336 40.9883L24.2561 39.6658C25.3751 38.5072 26.8426 37.7465 28.4344 37.5C29.8591 37.3083 31.3031 37.3083 32.7278 37.5C34.3256 37.7453 35.7995 38.5058 36.9253 39.6658L38.2286 40.9883V41.1417C38.2288 41.7135 38.3995 42.2723 38.719 42.7466C39.0384 43.2209 39.492 43.5892 40.0218 43.8044C40.5516 44.0195 41.1336 44.0718 41.6933 43.9545C42.253 43.8372 42.765 43.5557 43.1638 43.1459C43.5627 42.7361 43.8303 42.2167 43.9324 41.6541C44.0345 41.0914 43.9665 40.5111 43.7371 39.9873C43.5077 39.4635 43.1273 39.02 42.6445 38.7135C42.1618 38.407 41.5986 38.2514 41.0269 38.2667Z" fill="white"/>
</svg>
