<svg width="814" height="189" viewBox="0 0 814 189" fill="none" xmlns="http://www.w3.org/2000/svg">
<g clip-path="url(#clip0_96_109)">
<path d="M80.8876 18.8952C80.8797 18.8201 80.8718 18.743 80.8639 18.6639C80.2708 14.9926 76.813 12.4897 73.1357 13.0828C53.0948 16.3093 34.7382 26.6055 21.4349 42.0796C7.99519 57.7198 0.587311 77.7073 0.587311 98.3592C0.587311 108.887 2.46153 119.177 6.1625 128.946C7.18264 131.638 9.74483 133.299 12.4672 133.299C13.2619 133.299 14.0686 133.157 14.8515 132.86C14.9305 132.828 15.0096 132.795 15.0887 132.759C10.0829 122.338 7.2716 110.672 7.2716 98.3592C7.2716 56.4624 39.7737 22.009 80.8876 18.8952Z" fill="#EB4736"/>
<path d="M86.9667 178.055C59.684 178.055 35.5625 164.271 21.1916 143.305C21.1204 143.356 21.0492 143.408 20.9781 143.459C18.0956 145.814 17.6626 150.06 20.0172 152.949C36.5114 173.15 60.9117 184.739 86.9727 184.739C113.01 184.739 137.404 173.162 153.898 152.972C156.253 150.09 155.826 145.843 152.944 143.489C152.872 143.433 152.801 143.38 152.73 143.329C138.353 164.283 114.244 178.055 86.9667 178.055Z" fill="#EB4736"/>
<path d="M152.505 42.0798C139.201 26.6057 120.845 16.3094 100.804 13.083C97.1266 12.4899 93.6688 14.9928 93.0757 18.6641C93.0678 18.7431 93.0599 18.8203 93.052 18.8954C134.166 22.0151 166.668 56.4625 166.668 98.3594C166.668 110.696 163.851 122.38 158.827 132.813C158.902 132.848 158.979 132.882 159.058 132.914C159.847 133.216 160.66 133.352 161.455 133.352C164.171 133.352 166.733 131.698 167.753 129.005C171.466 119.219 173.352 108.911 173.352 98.3594C173.352 77.7075 165.944 57.7199 152.505 42.0798Z" fill="#EB4736"/>
<path d="M18.7718 124.171C15.6521 115.933 14.0744 107.25 14.0744 98.3594C14.0744 62.3699 39.8151 32.1039 75.2827 26.3923C78.8769 25.817 81.3442 22.4837 80.8875 18.8954C39.7736 22.0092 7.27151 56.4626 7.27151 98.3594C7.27151 110.672 10.0828 122.339 15.0886 132.759C18.41 131.354 20.0588 127.57 18.7718 124.171Z" fill="#EB4736"/>
<path d="M143.454 144.444C129.534 161.483 108.947 171.258 86.9729 171.258C64.9806 171.258 44.388 161.477 30.462 144.42C28.1667 141.603 24.0683 141.134 21.1918 143.305C35.5627 164.271 59.6842 178.055 86.9669 178.055C114.244 178.055 138.353 164.283 152.73 143.329C149.854 141.164 145.755 141.626 143.454 144.444Z" fill="#EB4736"/>
<path d="M93.0519 18.8954C92.5952 22.4837 95.0625 25.817 98.6626 26.3923C134.124 32.1039 159.865 62.3699 159.865 98.3594C159.865 107.268 158.281 115.969 155.15 124.219C153.857 127.623 155.506 131.407 158.827 132.813C163.851 122.38 166.668 110.69 166.668 98.3594C166.668 56.4626 134.166 22.0152 93.0519 18.8954Z" fill="#EB4736"/>
<path d="M86.9669 44.3575C104.392 44.3575 119.902 52.655 129.783 65.4957C132.345 62.8741 132.345 58.675 129.753 56.0535C110.234 36.3091 79.9505 32.4717 56.1137 46.7121C51.2502 49.6183 46.8375 53.1769 43.0002 57.2871C40.4913 59.9739 40.61 64.173 43.2433 66.7234C53.0651 53.1828 69.0018 44.3575 86.9669 44.3575Z" fill="#EB4736"/>
<path d="M136.212 76.2247C139.261 82.9861 140.975 90.477 140.975 98.3593C140.975 125.743 120.483 148.417 94.0247 151.887C94.867 154.841 97.5597 156.786 100.501 156.786C101.071 156.79 101.642 156.717 102.216 156.567C107.684 155.137 112.939 152.931 117.826 150.007C141.669 135.766 152.635 107.28 144.498 80.7323C143.424 77.2152 139.729 75.2283 136.212 76.2247Z" fill="#EB4736"/>
<path d="M32.9646 98.3595C32.9646 91.0287 34.4414 84.0419 37.0985 77.6602C33.5636 76.7883 29.9576 78.8819 28.9849 82.4168C24.59 98.401 26.8438 115.026 35.3252 129.219C43.7888 143.394 57.3412 153.245 73.4736 156.964C73.9837 157.083 74.4898 157.14 74.9919 157.136C77.999 157.136 80.7213 155.108 81.5042 152.089C54.2808 149.343 32.9646 126.295 32.9646 98.3595Z" fill="#EB4736"/>
<path d="M47.9287 68.6271C49.7317 68.6271 51.5288 67.9094 52.8574 66.486C55.8288 63.301 59.251 60.5431 63.0291 58.2893C81.5221 47.2338 105.021 50.2172 120.169 65.537C122.784 68.1823 127.055 68.206 129.7 65.5904C129.728 65.5588 129.755 65.5271 129.783 65.4955C119.902 52.6548 104.392 44.3573 86.9668 44.3573C69.0016 44.3573 53.065 53.1827 43.2432 66.7232C43.2708 66.7549 43.3005 66.7845 43.3321 66.8122C44.631 68.0281 46.2799 68.6271 47.9287 68.6271Z" fill="#EB4736"/>
<path d="M140.975 98.3594C140.975 90.477 139.261 82.9861 136.212 76.2247C136.169 76.2366 136.123 76.2485 136.076 76.2603C132.517 77.3516 130.519 81.1178 131.61 84.6824C137.92 105.275 129.409 127.38 110.911 138.429C107.115 140.701 103.04 142.415 98.7993 143.524C95.1992 144.467 93.0403 148.15 93.9833 151.751C93.9991 151.798 94.013 151.843 94.0248 151.887C120.483 148.417 140.975 125.743 140.975 98.3594Z" fill="#EB4736"/>
<path d="M76.4984 143.827C63.978 140.938 53.4682 133.293 46.8966 122.303C40.3191 111.295 38.5754 98.3949 41.9857 85.9872C42.9703 82.3989 40.8588 78.6861 37.2706 77.7016C37.2113 77.6857 37.1539 77.6719 37.0986 77.66C34.4415 84.0418 32.9646 91.0286 32.9646 98.3593C32.9646 126.295 54.2808 149.343 81.5042 152.089C81.524 152.029 81.5418 151.97 81.5576 151.911C82.3939 148.281 80.1282 144.663 76.4984 143.827Z" fill="#EB4736"/>
<path opacity="0.3" d="M87.3686 129.057C104.706 129.057 118.76 115.002 118.76 97.6652C118.76 80.3282 104.706 66.2737 87.3686 66.2737C70.0316 66.2737 55.9772 80.3282 55.9772 97.6652C55.9772 115.002 70.0316 129.057 87.3686 129.057Z" fill="#B22624"/>
<path d="M99.1322 102.82L118.43 108.9C119.468 109.189 120.387 109.802 121.053 110.651C121.718 111.499 122.095 112.537 122.128 113.615C122.161 114.693 121.849 115.752 121.237 116.64C120.625 117.528 119.746 118.196 118.727 118.549L113.242 120.531C112.547 120.784 111.916 121.187 111.396 121.713C110.876 122.239 110.479 122.873 110.235 123.571L108.153 129.255C107.814 130.266 107.166 131.145 106.3 131.767C105.434 132.39 104.395 132.725 103.329 132.725C102.262 132.725 101.223 132.39 100.357 131.767C99.4918 131.145 98.8436 130.266 98.5044 129.255L92.4904 109.429C92.2042 108.507 92.176 107.524 92.4087 106.587C92.6414 105.65 93.1263 104.795 93.8106 104.114C94.495 103.433 95.3527 102.952 96.2908 102.724C97.2289 102.496 98.2116 102.529 99.1322 102.82Z" fill="#B22624"/>
</g>
<path d="M231.73 127.544C231.73 131.641 233.227 134.872 236.222 137.235C239.216 139.599 242.762 140.781 246.859 140.781C251.849 140.781 256.682 139.625 261.357 137.314C269.236 133.48 273.176 127.202 273.176 118.482V107.057C271.443 108.16 269.21 109.08 266.479 109.815C263.747 110.551 261.068 111.076 258.442 111.391L249.853 112.494C244.705 113.177 240.844 114.254 238.27 115.725C233.91 118.194 231.73 122.133 231.73 127.544ZM266.085 98.8628C269.341 98.4425 271.521 97.0768 272.624 94.7655C273.255 93.5048 273.57 91.6925 273.57 89.3287C273.57 84.496 271.836 81.0028 268.37 78.8491C264.955 76.6429 260.044 75.5398 253.635 75.5398C246.228 75.5398 240.976 77.5359 237.876 81.5281C236.143 83.7343 235.013 87.0174 234.488 91.3773H221.251C221.513 80.9766 224.875 73.7538 231.336 69.709C237.85 65.6117 245.388 63.5631 253.95 63.5631C263.878 63.5631 271.942 65.4542 278.14 69.2363C284.286 73.0184 287.359 78.9016 287.359 86.8861V135.502C287.359 136.973 287.648 138.155 288.226 139.048C288.856 139.941 290.143 140.387 292.087 140.387C292.717 140.387 293.426 140.361 294.214 140.308C295.002 140.203 295.842 140.072 296.735 139.914V150.394C294.529 151.024 292.848 151.418 291.693 151.576C290.537 151.733 288.961 151.812 286.965 151.812C282.08 151.812 278.534 150.079 276.328 146.612C275.172 144.773 274.358 142.173 273.885 138.811C270.996 142.593 266.846 145.876 261.436 148.661C256.025 151.445 250.063 152.837 243.549 152.837C235.723 152.837 229.314 150.473 224.324 145.745C219.386 140.965 216.917 135.003 216.917 127.859C216.917 120.032 219.36 113.965 224.245 109.658C229.13 105.35 235.539 102.697 243.471 101.699L266.085 98.8628ZM319.664 108.791C319.664 117.826 321.582 125.39 325.416 131.483C329.251 137.577 335.397 140.624 343.854 140.624C350.42 140.624 355.805 137.813 360.007 132.193C364.262 126.519 366.389 118.404 366.389 107.845C366.389 97.1818 364.209 89.3024 359.849 84.2071C355.489 79.0592 350.105 76.4853 343.697 76.4853C336.553 76.4853 330.748 79.2168 326.283 84.6799C321.871 90.1429 319.664 98.1799 319.664 108.791ZM341.018 64.1147C347.479 64.1147 352.889 65.4804 357.249 68.2119C359.77 69.7878 362.633 72.5456 365.838 76.4853V33.8578H379.469V150H366.704V138.26C363.395 143.46 359.482 147.216 354.964 149.527C350.447 151.839 345.272 152.994 339.442 152.994C330.039 152.994 321.897 149.054 315.016 141.175C308.134 133.243 304.694 122.711 304.694 109.579C304.694 97.2869 307.819 86.6497 314.07 77.6672C320.374 68.6322 329.356 64.1147 341.018 64.1147ZM403.422 35.2761H441.401C450.016 35.2761 457.291 36.5893 463.227 39.2158C469.215 41.8423 473.759 45.7294 476.858 50.8773C480.01 55.9726 481.586 62.2499 481.586 69.709C481.586 74.962 480.509 79.7684 478.355 84.1283C476.254 88.4357 473.207 92.1128 469.215 95.1595C465.275 98.1536 460.548 100.386 455.032 101.857L450.777 103.512H415.084L414.926 91.141H441.874C447.337 91.141 451.881 90.1954 455.505 88.3044C459.13 86.3608 461.861 83.7606 463.7 80.5038C465.538 77.247 466.457 73.6487 466.457 69.709C466.457 65.2966 465.591 61.4357 463.857 58.1263C462.124 54.817 459.392 52.2693 455.663 50.4833C451.986 48.6448 447.232 47.7255 441.401 47.7255H418.63V150H403.422V35.2761ZM470.476 150L442.583 97.996L458.42 97.9172L486.707 149.054V150H470.476ZM510.818 127.544C510.818 131.641 512.315 134.872 515.31 137.235C518.304 139.599 521.85 140.781 525.947 140.781C530.937 140.781 535.77 139.625 540.445 137.314C548.324 133.48 552.264 127.202 552.264 118.482V107.057C550.53 108.16 548.298 109.08 545.566 109.815C542.835 110.551 540.156 111.076 537.529 111.391L528.941 112.494C523.793 113.177 519.932 114.254 517.358 115.725C512.998 118.194 510.818 122.133 510.818 127.544ZM545.172 98.8628C548.429 98.4425 550.609 97.0768 551.712 94.7655C552.343 93.5048 552.658 91.6925 552.658 89.3287C552.658 84.496 550.924 81.0028 547.458 78.8491C544.043 76.6429 539.132 75.5398 532.723 75.5398C525.316 75.5398 520.064 77.5359 516.964 81.5281C515.231 83.7343 514.101 87.0174 513.576 91.3773H500.339C500.601 80.9766 503.963 73.7538 510.424 69.709C516.938 65.6117 524.476 63.5631 533.038 63.5631C542.966 63.5631 551.03 65.4542 557.228 69.2363C563.374 73.0184 566.447 78.9016 566.447 86.8861V135.502C566.447 136.973 566.736 138.155 567.314 139.048C567.944 139.941 569.231 140.387 571.174 140.387C571.805 140.387 572.514 140.361 573.302 140.308C574.09 140.203 574.93 140.072 575.823 139.914V150.394C573.617 151.024 571.936 151.418 570.781 151.576C569.625 151.733 568.049 151.812 566.053 151.812C561.168 151.812 557.622 150.079 555.416 146.612C554.26 144.773 553.446 142.173 552.973 138.811C550.084 142.593 545.934 145.876 540.524 148.661C535.113 151.445 529.151 152.837 522.637 152.837C514.811 152.837 508.402 150.473 503.412 145.745C498.474 140.965 496.005 135.003 496.005 127.859C496.005 120.032 498.448 113.965 503.333 109.658C508.218 105.35 514.627 102.697 522.559 101.699L545.172 98.8628ZM598.752 108.791C598.752 117.826 600.67 125.39 604.504 131.483C608.339 137.577 614.485 140.624 622.942 140.624C629.508 140.624 634.892 137.813 639.095 132.193C643.35 126.519 645.477 118.404 645.477 107.845C645.477 97.1818 643.297 89.3024 638.937 84.2071C634.577 79.0592 629.193 76.4853 622.784 76.4853C615.641 76.4853 609.836 79.2168 605.371 84.6799C600.959 90.1429 598.752 98.1799 598.752 108.791ZM620.105 64.1147C626.567 64.1147 631.977 65.4804 636.337 68.2119C638.858 69.7878 641.721 72.5456 644.926 76.4853V33.8578H658.557V150H645.792V138.26C642.483 143.46 638.57 147.216 634.052 149.527C629.534 151.839 624.36 152.994 618.53 152.994C609.127 152.994 600.985 149.054 594.104 141.175C587.222 133.243 583.782 122.711 583.782 109.579C583.782 97.2869 586.907 86.6497 593.158 77.6672C599.461 68.6322 608.444 64.1147 620.105 64.1147ZM690.468 127.544C690.468 131.641 691.966 134.872 694.96 137.235C697.954 139.599 701.5 140.781 705.597 140.781C710.587 140.781 715.42 139.625 720.095 137.314C727.974 133.48 731.914 127.202 731.914 118.482V107.057C730.181 108.16 727.948 109.08 725.217 109.815C722.485 110.551 719.806 111.076 717.18 111.391L708.591 112.494C703.443 113.177 699.582 114.254 697.008 115.725C692.648 118.194 690.468 122.133 690.468 127.544ZM724.823 98.8628C728.079 98.4425 730.259 97.0768 731.362 94.7655C731.993 93.5048 732.308 91.6925 732.308 89.3287C732.308 84.496 730.575 81.0028 727.108 78.8491C723.693 76.6429 718.782 75.5398 712.373 75.5398C704.967 75.5398 699.714 77.5359 696.614 81.5281C694.881 83.7343 693.752 87.0174 693.226 91.3773H679.989C680.252 80.9766 683.613 73.7538 690.074 69.709C696.588 65.6117 704.126 63.5631 712.688 63.5631C722.616 63.5631 730.68 65.4542 736.878 69.2363C743.024 73.0184 746.097 78.9016 746.097 86.8861V135.502C746.097 136.973 746.386 138.155 746.964 139.048C747.594 139.941 748.881 140.387 750.825 140.387C751.455 140.387 752.164 140.361 752.952 140.308C753.74 140.203 754.58 140.072 755.473 139.914V150.394C753.267 151.024 751.586 151.418 750.431 151.576C749.275 151.733 747.699 151.812 745.703 151.812C740.818 151.812 737.272 150.079 735.066 146.612C733.91 144.773 733.096 142.173 732.623 138.811C729.734 142.593 725.584 145.876 720.174 148.661C714.763 151.445 708.801 152.837 702.288 152.837C694.461 152.837 688.052 150.473 683.062 145.745C678.124 140.965 675.655 135.003 675.655 127.859C675.655 120.032 678.098 113.965 682.983 109.658C687.868 105.35 694.277 102.697 702.209 101.699L724.823 98.8628ZM769.814 65.6117H783.288V80.1886C784.391 77.352 787.096 73.9114 791.403 69.8666C795.711 65.7693 800.675 63.7207 806.295 63.7207C806.558 63.7207 807.005 63.747 807.635 63.7995C808.265 63.852 809.342 63.9571 810.865 64.1147V79.0855C810.025 78.9279 809.237 78.8229 808.502 78.7703C807.819 78.7178 807.057 78.6915 806.217 78.6915C799.073 78.6915 793.583 81.0028 789.749 85.6254C785.914 90.1954 783.997 95.4746 783.997 101.463V150H769.814V65.6117Z" fill="#141414"/>
<defs>
<clipPath id="clip0_96_109">
<rect width="173.779" height="172" fill="white" transform="translate(0 12.8633)"/>
</clipPath>
</defs>
</svg>
