<svg width="168" height="41" viewBox="0 0 168 41" fill="none" xmlns="http://www.w3.org/2000/svg">
<g clip-path="url(#clip0_72_6077)">
<path d="M17.6085 4.11338C17.6067 4.09702 17.605 4.08024 17.6033 4.06302C17.4742 3.26379 16.7214 2.71892 15.9209 2.84804C11.5581 3.55043 7.56194 5.79189 4.66587 9.16052C1.7401 12.5653 0.127441 16.9165 0.127441 21.4123C0.127441 23.7041 0.535451 25.9443 1.34113 28.0709C1.56321 28.657 2.12099 29.0186 2.71363 29.0186C2.88665 29.0186 3.06225 28.9876 3.23268 28.923C3.2499 28.9161 3.26711 28.9088 3.28433 28.9011C2.19459 26.6325 1.58258 24.0928 1.58258 21.4123C1.58258 12.2916 8.65814 4.79124 17.6085 4.11338Z" fill="#EB4736"/>
<path d="M18.9325 38.7612C12.9931 38.7612 7.74198 35.7605 4.6135 31.1963C4.598 31.2075 4.58251 31.2187 4.56701 31.2299C3.93951 31.7425 3.84525 32.6669 4.35784 33.2957C7.94856 37.6934 13.2604 40.2163 18.9338 40.2163C24.6019 40.2163 29.9125 37.696 33.5032 33.3009C34.0158 32.6734 33.9228 31.7489 33.2953 31.2363C33.2798 31.2243 33.2643 31.2126 33.2488 31.2015C30.1191 35.7631 24.8705 38.7612 18.9325 38.7612Z" fill="#EB4736"/>
<path d="M33.1994 9.16052C30.3034 5.79189 26.3072 3.55043 21.9444 2.84804C21.1439 2.71892 20.3911 3.26379 20.262 4.06302C20.2603 4.08024 20.2586 4.09702 20.2568 4.11338C29.2072 4.79253 36.2827 12.2916 36.2827 21.4123C36.2827 24.0979 35.6694 26.6415 34.5758 28.9127C34.5921 28.9204 34.6089 28.9277 34.6262 28.9346C34.7979 29.0005 34.9748 29.0302 35.1478 29.0302C35.7391 29.0302 36.2969 28.6699 36.519 28.0838C37.3273 25.9533 37.7379 23.7093 37.7379 21.4123C37.7379 16.9165 36.1252 12.5653 33.1994 9.16052Z" fill="#EB4736"/>
<path d="M4.08656 27.0314C3.40741 25.2379 3.06397 23.3477 3.06397 21.4122C3.06397 13.5775 8.6676 6.98869 16.3887 5.74531C17.1712 5.62006 17.7083 4.89443 17.6089 4.11328C8.65856 4.79114 1.58301 12.2915 1.58301 21.4122C1.58301 24.0927 2.19502 26.6324 3.28476 28.901C4.00781 28.595 4.36675 27.7712 4.08656 27.0314Z" fill="#EB4736"/>
<path d="M31.2292 31.4444C28.1989 35.1539 23.7173 37.2817 18.9335 37.2817C14.1459 37.2817 9.663 35.1526 6.63136 31.4392C6.13168 30.8259 5.23949 30.7239 4.61328 31.1965C7.74176 35.7607 12.9929 38.7614 18.9322 38.7614C24.8703 38.7614 30.1189 35.7633 33.2486 31.2016C32.6224 30.7303 31.7302 30.8311 31.2292 31.4444Z" fill="#EB4736"/>
<path d="M20.257 4.11328C20.1575 4.89443 20.6947 5.62006 21.4784 5.74531C29.1982 6.98869 34.8019 13.5775 34.8019 21.4122C34.8019 23.3516 34.4571 25.2457 33.7754 27.0417C33.4939 27.7828 33.8529 28.6066 34.5759 28.9126C35.6695 26.6414 36.2828 24.0966 36.2828 21.4122C36.2828 12.2915 29.2073 4.79243 20.257 4.11328Z" fill="#EB4736"/>
<path d="M18.932 9.65649C22.7254 9.65649 26.1018 11.4628 28.2529 14.2582C28.8107 13.6875 28.8107 12.7734 28.2464 12.2027C23.9972 7.90439 17.4046 7.06901 12.2154 10.1691C11.1566 10.8018 10.196 11.5764 9.36064 12.4712C8.81447 13.0561 8.8403 13.9703 9.41357 14.5255C11.5517 11.5777 15.0211 9.65649 18.932 9.65649Z" fill="#EB4736"/>
<path d="M29.6528 16.594C30.3164 18.0659 30.6896 19.6967 30.6896 21.4126C30.6896 27.3739 26.2286 32.31 20.4688 33.0653C20.6521 33.7083 21.2383 34.1318 21.8787 34.1318C22.0026 34.1327 22.127 34.1168 22.2518 34.084C23.4423 33.7729 24.5863 33.2926 25.6502 32.656C30.8406 29.556 33.228 23.3545 31.4565 17.5753C31.2228 16.8096 30.4184 16.3771 29.6528 16.594Z" fill="#EB4736"/>
<path d="M7.17559 21.4124C7.17559 19.8165 7.49709 18.2955 8.07553 16.9063C7.306 16.7165 6.52098 17.1722 6.30923 17.9418C5.35248 21.4214 5.84312 25.0406 7.68948 28.1303C9.53196 31.2162 12.4823 33.3608 15.9942 34.1703C16.1053 34.1962 16.2154 34.2087 16.3248 34.2078C16.9794 34.2078 17.572 33.7662 17.7424 33.109C11.816 32.5112 7.17559 27.4938 7.17559 21.4124Z" fill="#EB4736"/>
<path d="M10.4336 14.9397C10.8261 14.9397 11.2173 14.7834 11.5065 14.4736C12.1534 13.7802 12.8984 13.1798 13.7209 12.6892C17.7467 10.2825 22.8623 10.9319 26.1599 14.267C26.7293 14.8428 27.659 14.848 28.2348 14.2786C28.2408 14.2717 28.2469 14.2648 28.2529 14.2579C26.1018 11.4626 22.7254 9.65625 18.932 9.65625C15.0211 9.65625 11.5517 11.5775 9.41357 14.5252C9.4196 14.5321 9.42605 14.5386 9.43294 14.5446C9.7157 14.8093 10.0746 14.9397 10.4336 14.9397Z" fill="#EB4736"/>
<path d="M30.6896 21.4124C30.6896 19.6964 30.3165 18.0657 29.6528 16.5938C29.6434 16.5963 29.6335 16.5989 29.6231 16.6015C28.8484 16.8391 28.4133 17.659 28.6509 18.4349C30.0247 22.9179 28.1719 27.73 24.1448 30.1354C23.3184 30.63 22.4314 31.0031 21.5082 31.2445C20.7245 31.4498 20.2545 32.2517 20.4598 33.0354C20.4632 33.0457 20.4662 33.0556 20.4688 33.0651C26.2287 32.3098 30.6896 27.3736 30.6896 21.4124Z" fill="#EB4736"/>
<path d="M16.6534 31.3104C13.9277 30.6816 11.6398 29.0173 10.2092 26.6248C8.77731 24.2284 8.39771 21.4201 9.14013 18.719C9.35446 17.9379 8.8948 17.1296 8.11365 16.9153C8.10074 16.9118 8.08826 16.9088 8.07621 16.9062C7.49777 18.2955 7.17627 19.8165 7.17627 21.4124C7.17627 27.4938 11.8167 32.5112 17.7431 33.109C17.7474 33.0961 17.7513 33.0832 17.7547 33.0703C17.9368 32.2801 17.4436 31.4925 16.6534 31.3104Z" fill="#EB4736"/>
<path opacity="0.3" d="M19.0198 28.0943C22.794 28.0943 25.8536 25.0347 25.8536 21.2605C25.8536 17.4863 22.794 14.4268 19.0198 14.4268C15.2456 14.4268 12.186 17.4863 12.186 21.2605C12.186 25.0347 15.2456 28.0943 19.0198 28.0943Z" fill="#B22624"/>
<path d="M21.5806 22.3825L25.7816 23.7061C26.0077 23.769 26.2078 23.9026 26.3526 24.0872C26.4974 24.2719 26.5795 24.498 26.5867 24.7326C26.5939 24.9671 26.526 25.1979 26.3928 25.3911C26.2596 25.5843 26.0681 25.7299 25.8463 25.8066L24.6522 26.2382C24.5009 26.2931 24.3637 26.381 24.2504 26.4955C24.1372 26.6099 24.0509 26.7481 23.9976 26.9L23.5444 28.1373C23.4706 28.3574 23.3295 28.5487 23.141 28.6842C22.9526 28.8198 22.7263 28.8927 22.4942 28.8927C22.2621 28.8927 22.0358 28.8198 21.8474 28.6842C21.6589 28.5487 21.5178 28.3574 21.4439 28.1373L20.1347 23.8212C20.0724 23.6205 20.0663 23.4066 20.117 23.2026C20.1676 22.9986 20.2732 22.8124 20.4221 22.6642C20.5711 22.5159 20.7579 22.4113 20.9621 22.3617C21.1663 22.312 21.3802 22.3192 21.5806 22.3825Z" fill="#B22624"/>
</g>
<path d="M50.4468 27.1114C50.4468 28.0033 50.7727 28.7066 51.4245 29.2212C52.0763 29.7358 52.8482 29.9931 53.7402 29.9931C54.8265 29.9931 55.8786 29.7415 56.8963 29.2384C58.6116 28.4036 59.4693 27.037 59.4693 25.1388V22.6516C59.0919 22.8917 58.6059 23.0918 58.0113 23.2519C57.4166 23.412 56.8334 23.5264 56.2617 23.595L54.392 23.8351C53.2713 23.9838 52.4308 24.2182 51.8705 24.5384C50.9213 25.0759 50.4468 25.9335 50.4468 27.1114ZM57.9255 20.8677C58.6345 20.7762 59.1091 20.4788 59.3492 19.9757C59.4864 19.7012 59.555 19.3067 59.555 18.7921C59.555 17.7401 59.1777 16.9796 58.4229 16.5108C57.6796 16.0305 56.6104 15.7903 55.2153 15.7903C53.6029 15.7903 52.4594 16.2249 51.7847 17.094C51.4073 17.5743 51.1615 18.289 51.0471 19.2381H48.1654C48.2226 16.9739 48.9544 15.4015 50.361 14.521C51.779 13.6291 53.42 13.1831 55.2839 13.1831C57.4452 13.1831 59.2006 13.5947 60.5499 14.4181C61.8879 15.2414 62.5568 16.5222 62.5568 18.2604V28.8438C62.5568 29.164 62.6197 29.4213 62.7455 29.6157C62.8827 29.8101 63.1629 29.9073 63.586 29.9073C63.7232 29.9073 63.8776 29.9016 64.0492 29.8902C64.2207 29.8673 64.4037 29.8387 64.5981 29.8044V32.0858C64.1178 32.223 63.7518 32.3088 63.5003 32.3431C63.2487 32.3774 62.9056 32.3945 62.4711 32.3945C61.4076 32.3945 60.6357 32.0172 60.1554 31.2624C59.9038 30.8622 59.7266 30.2961 59.6237 29.5643C58.9947 30.3876 58.0913 31.1023 56.9135 31.7084C55.7356 32.3145 54.4377 32.6175 53.0197 32.6175C51.3159 32.6175 49.9207 32.1029 48.8344 31.0737C47.7594 30.0331 47.222 28.7352 47.222 27.18C47.222 25.4761 47.7537 24.1553 48.8172 23.2176C49.8807 22.2799 51.2758 21.7024 53.0026 21.4852L57.9255 20.8677ZM69.5896 23.0289C69.5896 24.9958 70.007 26.6425 70.8418 27.969C71.6766 29.2955 73.0145 29.9588 74.8556 29.9588C76.285 29.9588 77.4571 29.347 78.372 28.1234C79.2982 26.8884 79.7614 25.1216 79.7614 22.8231C79.7614 20.5017 79.2868 18.7864 78.3377 17.6772C77.3885 16.5565 76.2164 15.9962 74.8213 15.9962C73.2661 15.9962 72.0025 16.5908 71.0305 17.7801C70.0699 18.9694 69.5896 20.719 69.5896 23.0289ZM74.2381 13.3031C75.6446 13.3031 76.8225 13.6005 77.7716 14.1951C78.3205 14.5382 78.9437 15.1385 79.6413 15.9962V6.71636H82.6088V32H79.83V29.4442C79.1096 30.5763 78.2576 31.3939 77.2742 31.8971C76.2907 32.4002 75.1644 32.6518 73.895 32.6518C71.8481 32.6518 70.0756 31.7942 68.5776 30.0789C67.0795 28.3521 66.3305 26.0593 66.3305 23.2005C66.3305 20.5246 67.0109 18.2089 68.3717 16.2535C69.744 14.2866 71.6994 13.3031 74.2381 13.3031ZM87.2744 13.6291H90.2076V16.8024C90.4477 16.1849 91.0367 15.4358 91.9744 14.5553C92.9121 13.6634 93.9927 13.2174 95.2163 13.2174C95.2735 13.2174 95.3707 13.2231 95.5079 13.2345C95.6451 13.246 95.8796 13.2688 96.2112 13.3031V16.5622C96.0282 16.5279 95.8567 16.5051 95.6966 16.4936C95.5479 16.4822 95.3821 16.4765 95.1991 16.4765C93.6439 16.4765 92.4489 16.9796 91.6142 17.9859C90.7794 18.9808 90.362 20.1301 90.362 21.4337V32H87.2744V13.6291ZM101.254 27.1114C101.254 28.0033 101.58 28.7066 102.232 29.2212C102.884 29.7358 103.656 29.9931 104.548 29.9931C105.634 29.9931 106.686 29.7415 107.704 29.2384C109.419 28.4036 110.277 27.037 110.277 25.1388V22.6516C109.899 22.8917 109.413 23.0918 108.819 23.2519C108.224 23.412 107.641 23.5264 107.069 23.595L105.199 23.8351C104.079 23.9838 103.238 24.2182 102.678 24.5384C101.729 25.0759 101.254 25.9335 101.254 27.1114ZM108.733 20.8677C109.442 20.7762 109.916 20.4788 110.157 19.9757C110.294 19.7012 110.362 19.3067 110.362 18.7921C110.362 17.7401 109.985 16.9796 109.23 16.5108C108.487 16.0305 107.418 15.7903 106.023 15.7903C104.41 15.7903 103.267 16.2249 102.592 17.094C102.215 17.5743 101.969 18.289 101.855 19.2381H98.9728C99.03 16.9739 99.7619 15.4015 101.168 14.521C102.586 13.6291 104.227 13.1831 106.091 13.1831C108.253 13.1831 110.008 13.5947 111.357 14.4181C112.695 15.2414 113.364 16.5222 113.364 18.2604V28.8438C113.364 29.164 113.427 29.4213 113.553 29.6157C113.69 29.8101 113.97 29.9073 114.393 29.9073C114.531 29.9073 114.685 29.9016 114.857 29.8902C115.028 29.8673 115.211 29.8387 115.405 29.8044V32.0858C114.925 32.223 114.559 32.3088 114.308 32.3431C114.056 32.3774 113.713 32.3945 113.278 32.3945C112.215 32.3945 111.443 32.0172 110.963 31.2624C110.711 30.8622 110.534 30.2961 110.431 29.5643C109.802 30.3876 108.899 31.1023 107.721 31.7084C106.543 32.3145 105.245 32.6175 103.827 32.6175C102.123 32.6175 100.728 32.1029 99.6418 31.0737C98.5669 30.0331 98.0294 28.7352 98.0294 27.18C98.0294 25.4761 98.5612 24.1553 99.6246 23.2176C100.688 22.2799 102.083 21.7024 103.81 21.4852L108.733 20.8677ZM120.397 23.0289C120.397 24.9958 120.814 26.6425 121.649 27.969C122.484 29.2955 123.822 29.9588 125.663 29.9588C127.092 29.9588 128.265 29.347 129.179 28.1234C130.106 26.8884 130.569 25.1216 130.569 22.8231C130.569 20.5017 130.094 18.7864 129.145 17.6772C128.196 16.5565 127.024 15.9962 125.629 15.9962C124.074 15.9962 122.81 16.5908 121.838 17.7801C120.877 18.9694 120.397 20.719 120.397 23.0289ZM125.046 13.3031C126.452 13.3031 127.63 13.6005 128.579 14.1951C129.128 14.5382 129.751 15.1385 130.449 15.9962V6.71636H133.416V32H130.637V29.4442C129.917 30.5763 129.065 31.3939 128.082 31.8971C127.098 32.4002 125.972 32.6518 124.702 32.6518C122.656 32.6518 120.883 31.7942 119.385 30.0789C117.887 28.3521 117.138 26.0593 117.138 23.2005C117.138 20.5246 117.818 18.2089 119.179 16.2535C120.551 14.2866 122.507 13.3031 125.046 13.3031ZM140.363 27.1114C140.363 28.0033 140.689 28.7066 141.341 29.2212C141.993 29.7358 142.765 29.9931 143.657 29.9931C144.743 29.9931 145.795 29.7415 146.813 29.2384C148.528 28.4036 149.386 27.037 149.386 25.1388V22.6516C149.008 22.8917 148.522 23.0918 147.928 23.2519C147.333 23.412 146.75 23.5264 146.178 23.595L144.308 23.8351C143.188 23.9838 142.347 24.2182 141.787 24.5384C140.838 25.0759 140.363 25.9335 140.363 27.1114ZM147.842 20.8677C148.551 20.7762 149.026 20.4788 149.266 19.9757C149.403 19.7012 149.471 19.3067 149.471 18.7921C149.471 17.7401 149.094 16.9796 148.339 16.5108C147.596 16.0305 146.527 15.7903 145.132 15.7903C143.519 15.7903 142.376 16.2249 141.701 17.094C141.324 17.5743 141.078 18.289 140.964 19.2381H138.082C138.139 16.9739 138.871 15.4015 140.277 14.521C141.695 13.6291 143.336 13.1831 145.2 13.1831C147.362 13.1831 149.117 13.5947 150.466 14.4181C151.804 15.2414 152.473 16.5222 152.473 18.2604V28.8438C152.473 29.164 152.536 29.4213 152.662 29.6157C152.799 29.8101 153.079 29.9073 153.502 29.9073C153.64 29.9073 153.794 29.9016 153.966 29.8902C154.137 29.8673 154.32 29.8387 154.515 29.8044V32.0858C154.034 32.223 153.668 32.3088 153.417 32.3431C153.165 32.3774 152.822 32.3945 152.388 32.3945C151.324 32.3945 150.552 32.0172 150.072 31.2624C149.82 30.8622 149.643 30.2961 149.54 29.5643C148.911 30.3876 148.008 31.1023 146.83 31.7084C145.652 32.3145 144.354 32.6175 142.936 32.6175C141.232 32.6175 139.837 32.1029 138.751 31.0737C137.676 30.0331 137.138 28.7352 137.138 27.18C137.138 25.4761 137.67 24.1553 138.734 23.2176C139.797 22.2799 141.192 21.7024 142.919 21.4852L147.842 20.8677ZM157.636 13.6291H160.57V16.8024C160.81 16.1849 161.399 15.4358 162.336 14.5553C163.274 13.6634 164.355 13.2174 165.578 13.2174C165.635 13.2174 165.733 13.2231 165.87 13.2345C166.007 13.246 166.241 13.2688 166.573 13.3031V16.5622C166.39 16.5279 166.219 16.5051 166.059 16.4936C165.91 16.4822 165.744 16.4765 165.561 16.4765C164.006 16.4765 162.811 16.9796 161.976 17.9859C161.141 18.9808 160.724 20.1301 160.724 21.4337V32H157.636V13.6291Z" fill="white"/>
<defs>
<clipPath id="clip0_72_6077">
<rect width="37.831" height="37.4436" fill="white" transform="translate(0 2.7998)"/>
</clipPath>
</defs>
</svg>
