<svg width="199" height="48" viewBox="0 0 199 48" fill="none" xmlns="http://www.w3.org/2000/svg">
<g clip-path="url(#clip0_72_4277)">
<path d="M20.874 4.87619C20.872 4.8568 20.8699 4.8369 20.8679 4.81649C20.7148 3.86906 19.8225 3.22315 18.8735 3.37621C13.7017 4.20885 8.96451 6.86596 5.53139 10.8593C2.06308 14.8954 0.151367 20.0535 0.151367 25.383C0.151367 28.0998 0.635037 30.7554 1.59013 33.2763C1.85339 33.9712 2.5146 34.3997 3.21714 34.3997C3.42224 34.3997 3.6304 34.363 3.83244 34.2865C3.85285 34.2783 3.87325 34.2696 3.89366 34.2604C2.60184 31.5712 1.87634 28.5605 1.87634 25.383C1.87634 14.5709 10.264 5.67975 20.874 4.87619Z" fill="#EB4736"/>
<path d="M22.443 45.9494C15.4023 45.9494 9.17739 42.3923 5.46877 36.9817C5.45041 36.995 5.43204 37.0082 5.41367 37.0215C4.6698 37.6291 4.55807 38.725 5.16571 39.4704C9.42228 44.6836 15.7191 47.6744 22.4445 47.6744C29.1638 47.6744 35.4591 44.6867 39.7157 39.4766C40.3234 38.7327 40.2132 37.6368 39.4693 37.0291C39.4509 37.0149 39.4326 37.0011 39.4142 36.9878C35.704 42.3954 29.4822 45.9494 22.443 45.9494Z" fill="#EB4736"/>
<path d="M39.3558 10.8593C35.9227 6.86596 31.1855 4.20885 26.0137 3.37621C25.0647 3.22315 24.1724 3.86906 24.0193 4.81649C24.0173 4.8369 24.0152 4.8568 24.0132 4.87619C34.6232 5.68128 43.0109 14.5709 43.0109 25.383C43.0109 28.5667 42.2838 31.5819 40.9874 34.2742C41.0068 34.2834 41.0267 34.2921 41.0471 34.3002C41.2507 34.3783 41.4604 34.4135 41.6655 34.4135C42.3665 34.4135 43.0277 33.9865 43.291 33.2916C44.2491 30.7661 44.7358 28.1059 44.7358 25.383C44.7358 20.0535 42.8241 14.8954 39.3558 10.8593Z" fill="#EB4736"/>
<path d="M4.84428 32.0442C4.03919 29.9182 3.63205 27.6774 3.63205 25.3831C3.63205 16.0954 10.2748 8.28484 19.4277 6.81088C20.3553 6.66242 20.992 5.80223 20.8741 4.87622C10.2641 5.67978 1.87646 14.571 1.87646 25.3831C1.87646 28.5606 2.60196 31.5712 3.89378 34.2605C4.75091 33.8977 5.17641 32.9212 4.84428 32.0442Z" fill="#EB4736"/>
<path d="M37.0203 37.2757C33.428 41.6731 28.1154 44.1955 22.4445 44.1955C16.7691 44.1955 11.4549 41.6715 7.86106 37.2696C7.26872 36.5425 6.21109 36.4216 5.46875 36.9818C9.17737 42.3925 15.4023 45.9495 22.443 45.9495C29.4822 45.9495 35.704 42.3955 39.4142 36.9879C38.6718 36.4293 37.6142 36.5487 37.0203 37.2757Z" fill="#EB4736"/>
<path d="M24.0135 4.87622C23.8957 5.80223 24.5324 6.66242 25.4615 6.81088C34.6129 8.28484 41.2556 16.0954 41.2556 25.3831C41.2556 27.682 40.847 29.9274 40.0388 32.0564C39.7052 32.935 40.1306 33.9115 40.9878 34.2742C42.2842 31.5819 43.0112 28.5652 43.0112 25.3831C43.0112 14.571 34.6236 5.68131 24.0135 4.87622Z" fill="#EB4736"/>
<path d="M22.443 11.4472C26.9399 11.4472 30.9424 13.5884 33.4923 16.9022C34.1536 16.2256 34.1536 15.142 33.4847 14.4655C28.4475 9.37014 20.6323 8.37985 14.4809 12.0548C13.2258 12.8048 12.087 13.7231 11.0968 14.7838C10.4493 15.4772 10.4799 16.5608 11.1595 17.219C13.6942 13.7247 17.8069 11.4472 22.443 11.4472Z" fill="#EB4736"/>
<path d="M35.1512 19.6708C35.938 21.4156 36.3803 23.3488 36.3803 25.3829C36.3803 32.4497 31.0921 38.3011 24.2642 39.1965C24.4815 39.9587 25.1764 40.4608 25.9356 40.4608C26.0825 40.4618 26.23 40.4429 26.3779 40.4041C27.7891 40.0353 29.1452 39.4659 30.4064 38.7113C36.5594 35.0364 39.3894 27.6849 37.2895 20.834C37.0124 19.9264 36.0589 19.4136 35.1512 19.6708Z" fill="#EB4736"/>
<path d="M8.50637 25.3832C8.50637 23.4914 8.88749 21.6883 9.5732 20.0414C8.66096 19.8164 7.73037 20.3567 7.47935 21.2689C6.34518 25.3939 6.92681 29.6841 9.11555 33.3468C11.2997 37.0049 14.7971 39.5472 18.9603 40.5069C19.0919 40.5375 19.2225 40.5523 19.3521 40.5513C20.1281 40.5513 20.8307 40.0279 21.0327 39.2488C14.0073 38.5401 8.50637 32.5922 8.50637 25.3832Z" fill="#EB4736"/>
<path d="M12.3683 17.7102C12.8336 17.7102 13.2974 17.525 13.6403 17.1577C14.4071 16.3357 15.2902 15.624 16.2652 15.0424C21.0376 12.1894 27.1018 12.9592 31.0109 16.9128C31.6859 17.5954 32.7879 17.6015 33.4706 16.9265C33.4777 16.9184 33.4849 16.9102 33.492 16.902C30.942 13.5883 26.9396 11.447 22.4427 11.447C17.8065 11.447 13.6938 13.7245 11.1592 17.2189C11.1663 17.227 11.174 17.2347 11.1821 17.2418C11.5173 17.5556 11.9428 17.7102 12.3683 17.7102Z" fill="#EB4736"/>
<path d="M36.3807 25.3831C36.3807 23.3489 35.9384 21.4158 35.1517 19.6709C35.1404 19.674 35.1287 19.677 35.1165 19.6801C34.1981 19.9617 33.6823 20.9336 33.9639 21.8535C35.5925 27.1677 33.3961 32.8722 28.6222 35.7237C27.6426 36.3099 26.5911 36.7523 25.4967 37.0385C24.5676 37.2819 24.0105 38.2324 24.2539 39.1614C24.258 39.1737 24.2615 39.1854 24.2646 39.1966C31.0925 38.3012 36.3807 32.4498 36.3807 25.3831Z" fill="#EB4736"/>
<path d="M19.7414 37.1163C16.5103 36.3709 13.7981 34.3979 12.1022 31.5618C10.4048 28.721 9.95478 25.392 10.8349 22.19C11.0889 21.264 10.5441 20.3058 9.61805 20.0517C9.60274 20.0476 9.58794 20.0441 9.57366 20.041C8.88795 21.6879 8.50684 23.491 8.50684 25.3828C8.50684 32.5918 14.0078 38.5397 21.0332 39.2484C21.0383 39.2331 21.0429 39.2178 21.047 39.2025C21.2628 38.2657 20.6781 37.3321 19.7414 37.1163Z" fill="#EB4736"/>
<path opacity="0.3" d="M22.5468 33.3048C27.0209 33.3048 30.6478 29.6779 30.6478 25.2038C30.6478 20.7297 27.0209 17.1028 22.5468 17.1028C18.0727 17.1028 14.4458 20.7297 14.4458 25.2038C14.4458 29.6779 18.0727 33.3048 22.5468 33.3048Z" fill="#B22624"/>
<path d="M25.5825 26.5341L30.5625 28.1031C30.8305 28.1777 31.0677 28.3359 31.2394 28.5548C31.411 28.7737 31.5083 29.0418 31.5169 29.3199C31.5254 29.5979 31.4449 29.8715 31.287 30.1005C31.1291 30.3296 30.9021 30.5022 30.6392 30.5931L29.2237 31.1047C29.0443 31.1698 28.8816 31.274 28.7474 31.4097C28.6132 31.5453 28.5108 31.7092 28.4477 31.8893L27.9104 33.356C27.8229 33.6169 27.6556 33.8436 27.4322 34.0043C27.2088 34.165 26.9406 34.2514 26.6654 34.2514C26.3903 34.2514 26.122 34.165 25.8986 34.0043C25.6753 33.8436 25.508 33.6169 25.4204 33.356L23.8685 28.2395C23.7946 28.0016 23.7873 27.748 23.8474 27.5062C23.9074 27.2644 24.0325 27.0436 24.2092 26.8679C24.3858 26.6922 24.6071 26.5682 24.8492 26.5093C25.0913 26.4505 25.3449 26.459 25.5825 26.5341Z" fill="#B22624"/>
</g>
<path d="M59.8012 32.2048C59.8012 33.2622 60.1875 34.0959 60.9602 34.7059C61.7329 35.3159 62.6479 35.6209 63.7053 35.6209C64.9931 35.6209 66.2403 35.3227 67.4467 34.7262C69.4801 33.7367 70.4968 32.1167 70.4968 29.8664V26.918C70.0495 27.2027 69.4734 27.4399 68.7684 27.6297C68.0635 27.8195 67.3722 27.9551 66.6944 28.0364L64.478 28.3211C63.1495 28.4973 62.1531 28.7752 61.4889 29.1548C60.3638 29.7919 59.8012 30.8086 59.8012 32.2048ZM68.6668 24.8033C69.5072 24.6948 70.0698 24.3424 70.3545 23.7459C70.5172 23.4206 70.5985 22.9529 70.5985 22.3429C70.5985 21.0957 70.1511 20.1943 69.2565 19.6385C68.3753 19.0691 67.1078 18.7845 65.454 18.7845C63.5426 18.7845 62.187 19.2996 61.3872 20.3298C60.9399 20.8992 60.6484 21.7464 60.5129 22.8716H57.0968C57.1646 20.1875 58.0321 18.3236 59.6995 17.2797C61.3805 16.2224 63.3257 15.6937 65.5354 15.6937C68.0974 15.6937 70.1783 16.1817 71.7779 17.1577C73.3639 18.1338 74.1569 19.652 74.1569 21.7125V34.2586C74.1569 34.6381 74.2315 34.9431 74.3806 35.1736C74.5433 35.404 74.8754 35.5193 75.377 35.5193C75.5396 35.5193 75.7226 35.5125 75.926 35.4989C76.1293 35.4718 76.3462 35.4379 76.5767 35.3973V38.1017C76.0073 38.2643 75.5735 38.366 75.2753 38.4067C74.9771 38.4473 74.5704 38.4677 74.0553 38.4677C72.7946 38.4677 71.8795 38.0203 71.3102 37.1256C71.012 36.6512 70.8018 35.9802 70.6798 35.1126C69.9343 36.0886 68.8633 36.9359 67.4671 37.6543C66.0708 38.3728 64.5322 38.732 62.8513 38.732C60.8314 38.732 59.1776 38.122 57.8898 36.902C56.6155 35.6684 55.9784 34.1298 55.9784 32.2862C55.9784 30.2663 56.6088 28.7006 57.8695 27.589C59.1302 26.4775 60.784 25.7929 62.8309 25.5353L68.6668 24.8033ZM82.4938 27.3654C82.4938 29.697 82.9886 31.649 83.9782 33.2215C84.9678 34.794 86.5538 35.5803 88.7363 35.5803C90.4308 35.5803 91.8203 34.855 92.9048 33.4045C94.0028 31.9405 94.5518 29.8461 94.5518 27.1214C94.5518 24.3695 93.9893 22.3361 92.8641 21.0212C91.739 19.6927 90.3495 19.0285 88.6957 19.0285C86.8521 19.0285 85.3541 19.7334 84.2019 21.1432C83.0632 22.553 82.4938 24.6271 82.4938 27.3654ZM88.0043 15.836C89.6717 15.836 91.068 16.1885 92.1931 16.8934C92.8438 17.3001 93.5826 18.0118 94.4095 19.0285V8.02782H97.9273V38H94.6332V34.9702C93.7791 36.3123 92.7692 37.2815 91.6034 37.878C90.4376 38.4745 89.1023 38.7727 87.5976 38.7727C85.1711 38.7727 83.07 37.756 81.2941 35.7226C79.5183 33.6757 78.6304 30.9577 78.6304 27.5687C78.6304 24.3966 79.437 21.6515 81.0501 19.3335C82.6768 17.0019 84.9949 15.836 88.0043 15.836ZM103.458 16.2224H106.935V19.9842C107.22 19.2521 107.918 18.3642 109.03 17.3204C110.141 16.2631 111.422 15.7344 112.873 15.7344C112.94 15.7344 113.056 15.7412 113.218 15.7547C113.381 15.7683 113.659 15.7954 114.052 15.836V19.6995C113.835 19.6588 113.632 19.6317 113.442 19.6181C113.266 19.6046 113.069 19.5978 112.852 19.5978C111.009 19.5978 109.592 20.1943 108.603 21.3872C107.613 22.5666 107.118 23.9289 107.118 25.4743V38H103.458V16.2224ZM120.03 32.2048C120.03 33.2622 120.417 34.0959 121.189 34.7059C121.962 35.3159 122.877 35.6209 123.934 35.6209C125.222 35.6209 126.469 35.3227 127.676 34.7262C129.709 33.7367 130.726 32.1167 130.726 29.8664V26.918C130.279 27.2027 129.702 27.4399 128.997 27.6297C128.293 27.8195 127.601 27.9551 126.923 28.0364L124.707 28.3211C123.379 28.4973 122.382 28.7752 121.718 29.1548C120.593 29.7919 120.03 30.8086 120.03 32.2048ZM128.896 24.8033C129.736 24.6948 130.299 24.3424 130.584 23.7459C130.746 23.4206 130.828 22.9529 130.828 22.3429C130.828 21.0957 130.38 20.1943 129.485 19.6385C128.604 19.0691 127.337 18.7845 125.683 18.7845C123.772 18.7845 122.416 19.2996 121.616 20.3298C121.169 20.8992 120.877 21.7464 120.742 22.8716H117.326C117.394 20.1875 118.261 18.3236 119.929 17.2797C121.609 16.2224 123.555 15.6937 125.764 15.6937C128.326 15.6937 130.407 16.1817 132.007 17.1577C133.593 18.1338 134.386 19.652 134.386 21.7125V34.2586C134.386 34.6381 134.461 34.9431 134.61 35.1736C134.772 35.404 135.104 35.5193 135.606 35.5193C135.769 35.5193 135.952 35.5125 136.155 35.4989C136.358 35.4718 136.575 35.4379 136.806 35.3973V38.1017C136.236 38.2643 135.803 38.366 135.504 38.4067C135.206 38.4473 134.799 38.4677 134.284 38.4677C133.024 38.4677 132.109 38.0203 131.539 37.1256C131.241 36.6512 131.031 35.9802 130.909 35.1126C130.163 36.0886 129.092 36.9359 127.696 37.6543C126.3 38.3728 124.761 38.732 123.08 38.732C121.06 38.732 119.407 38.122 118.119 36.902C116.845 35.6684 116.207 34.1298 116.207 32.2862C116.207 30.2663 116.838 28.7006 118.098 27.589C119.359 26.4775 121.013 25.7929 123.06 25.5353L128.896 24.8033ZM142.723 27.3654C142.723 29.697 143.218 31.649 144.207 33.2215C145.197 34.794 146.783 35.5803 148.965 35.5803C150.66 35.5803 152.049 34.855 153.134 33.4045C154.232 31.9405 154.781 29.8461 154.781 27.1214C154.781 24.3695 154.218 22.3361 153.093 21.0212C151.968 19.6927 150.579 19.0285 148.925 19.0285C147.081 19.0285 145.583 19.7334 144.431 21.1432C143.292 22.553 142.723 24.6271 142.723 27.3654ZM148.233 15.836C149.901 15.836 151.297 16.1885 152.422 16.8934C153.073 17.3001 153.812 18.0118 154.639 19.0285V8.02782H158.156V38H154.862V34.9702C154.008 36.3123 152.998 37.2815 151.832 37.878C150.667 38.4745 149.331 38.7727 147.827 38.7727C145.4 38.7727 143.299 37.756 141.523 35.7226C139.747 33.6757 138.859 30.9577 138.859 27.5687C138.859 24.3966 139.666 21.6515 141.279 19.3335C142.906 17.0019 145.224 15.836 148.233 15.836ZM166.392 32.2048C166.392 33.2622 166.778 34.0959 167.551 34.7059C168.323 35.3159 169.238 35.6209 170.296 35.6209C171.583 35.6209 172.831 35.3227 174.037 34.7262C176.07 33.7367 177.087 32.1167 177.087 29.8664V26.918C176.64 27.2027 176.064 27.4399 175.359 27.6297C174.654 27.8195 173.963 27.9551 173.285 28.0364L171.068 28.3211C169.74 28.4973 168.743 28.7752 168.079 29.1548C166.954 29.7919 166.392 30.8086 166.392 32.2048ZM175.257 24.8033C176.098 24.6948 176.66 24.3424 176.945 23.7459C177.107 23.4206 177.189 22.9529 177.189 22.3429C177.189 21.0957 176.741 20.1943 175.847 19.6385C174.966 19.0691 173.698 18.7845 172.044 18.7845C170.133 18.7845 168.777 19.2996 167.978 20.3298C167.53 20.8992 167.239 21.7464 167.103 22.8716H163.687C163.755 20.1875 164.622 18.3236 166.29 17.2797C167.971 16.2224 169.916 15.6937 172.126 15.6937C174.688 15.6937 176.769 16.1817 178.368 17.1577C179.954 18.1338 180.747 19.652 180.747 21.7125V34.2586C180.747 34.6381 180.822 34.9431 180.971 35.1736C181.134 35.404 181.466 35.5193 181.967 35.5193C182.13 35.5193 182.313 35.5125 182.516 35.4989C182.72 35.4718 182.937 35.4379 183.167 35.3973V38.1017C182.598 38.2643 182.164 38.366 181.866 38.4067C181.567 38.4473 181.161 38.4677 180.646 38.4677C179.385 38.4677 178.47 38.0203 177.901 37.1256C177.602 36.6512 177.392 35.9802 177.27 35.1126C176.525 36.0886 175.454 36.9359 174.057 37.6543C172.661 38.3728 171.123 38.732 169.442 38.732C167.422 38.732 165.768 38.122 164.48 36.902C163.206 35.6684 162.569 34.1298 162.569 32.2862C162.569 30.2663 163.199 28.7006 164.46 27.589C165.721 26.4775 167.374 25.7929 169.421 25.5353L175.257 24.8033ZM186.868 16.2224H190.345V19.9842C190.63 19.2521 191.328 18.3642 192.439 17.3204C193.551 16.2631 194.832 15.7344 196.282 15.7344C196.35 15.7344 196.465 15.7412 196.628 15.7547C196.791 15.7683 197.069 15.7954 197.462 15.836V19.6995C197.245 19.6588 197.041 19.6317 196.852 19.6181C196.675 19.6046 196.479 19.5978 196.262 19.5978C194.418 19.5978 193.002 20.1943 192.012 21.3872C191.023 22.5666 190.528 23.9289 190.528 25.4743V38H186.868V16.2224Z" fill="#141414"/>
<defs>
<clipPath id="clip0_72_4277">
<rect width="44.8463" height="44.3871" fill="white" transform="translate(0 3.31958)"/>
</clipPath>
</defs>
</svg>
